<!DOCTYPE svg PUBLIC "-//W3C//DTD SVG 20010904//EN" "http://www.w3.org/TR/2001/REC-SVG-20010904/DTD/svg10.dtd">
<svg version="1.0" xmlns="http://www.w3.org/2000/svg" width="1000px" height="960px" viewBox="0 0 10000 9600" preserveAspectRatio="xMidYMid meet">
<g id="layer1" fill="#010101" stroke="none">
 <path d="M4065 6719 c-122 -16 -358 -68 -475 -105 -253 -80 -565 -232 -790 -385 -448 -304 -781 -707 -1016 -1229 -187 -417 -260 -831 -234 -1338 17 -339 58 -548 170 -852 24 -64 38 -116 32 -118 -5 -1 -36 -19 -68 -38 -190 -114 -283 -304 -254 -517 16 -115 65 -205 171 -308 85 -84 87 -88 94 -144 4 -32 5 -115 3 -184 -6 -140 -30 -230 -94 -352 -44 -83 -65 -103 -134 -123 -167 -48 -322 -207 -359 -367 -13 -57 -13 -182 0 -239 32 -139 143 -276 273 -335 106 -50 207 -63 311 -42 112 23 178 59 260 142 85 84 120 150 144 271 15 74 23 93 52 122 72 72 181 132 319 177 74 25 102 28 211 29 l127 1 59 -56 c97 -93 214 -139 353 -139 209 0 405 140 470 335 12 36 25 67 30 70 4 3 46 -2 91 -10 46 -8 122 -22 167 -30 223 -40 665 -40 939 0 524 76 1076 342 1500 723 465 417 819 1075 908 1684 39 272 39 664 0 936 -89 611 -447 1271 -915 1690 -241 216 -493 375 -821 521 -248 110 -495 176 -779 211 -101 12 -646 11 -745 -1z m870 -123 c185 -34 199 -38 203 -63 3 -18 -4 -21 -55 -28 -51 -6 -63 -12 -100 -51 -34 -35 -44 -55 -54 -104 -12 -61 -25 -73 -49 -45 -19 22 -96 18 -162 -9 -31 -13 -95 -49 -143 -81 -60 -40 -99 -59 -128 -62 -76 -8 -95 -21 -104 -66 -8 -39 -11 -42 -48 -49 -60 -10 -185 -9 -185 2 0 5 17 18 38 29 67 34 101 96 82 147 -31 80 -169 31 -214 -76 -22 -54 -49 -74 -90 -66 -28 5 -36 12 -41 37 -5 20 -19 38 -41 51 -19 11 -34 23 -34 28 0 4 -36 31 -80 59 -79 51 -82 53 -198 66 -191 23 -235 20 -331 -20 -160 -68 -262 -157 -330 -290 -56 -110 -95 -275 -81 -350 5 -28 8 -30 54 -33 27 -2 54 2 59 7 36 36 32 -20 -14 -224 -16 -71 -32 -140 -34 -152 -5 -21 -10 -22 -72 -20 l-68 2 -6 -43 c-3 -25 -19 -62 -39 -90 -77 -108 -109 -159 -123 -203 -18 -54 -37 -349 -37 -586 0 -121 -4 -174 -16 -208 -14 -43 -14 -49 4 -83 12 -24 56 -65 128 -120 119 -90 266 -167 479 -252 155 -61 167 -68 271 -152 144 -116 477 -319 538 -327 31 -5 43 -13 56 -36 22 -42 73 -65 142 -65 l56 0 7 -40 c5 -30 14 -44 33 -54 67 -34 304 -116 367 -126 39 -7 93 -23 120 -35 34 -16 92 -29 184 -40 74 -10 154 -23 177 -30 35 -10 48 -10 67 0 21 10 36 10 84 -1 91 -22 462 -82 638 -103 177 -22 191 -25 199 -48 5 -13 18 -15 81 -9 51 5 93 2 137 -8 35 -8 114 -22 177 -31 63 -9 144 -26 180 -37 81 -26 188 -29 222 -6 33 21 81 112 81 151 0 18 -12 60 -27 95 l-26 63 21 26 c33 42 61 150 70 273 8 115 41 235 90 330 30 57 100 118 140 122 33 3 35 5 46 58 l12 55 1 -42 c1 -53 -23 -236 -50 -373 -75 -380 -268 -802 -522 -1139 -88 -117 -308 -345 -437 -453 -308 -258 -730 -469 -1133 -567 -208 -51 -311 -63 -592 -68 -278 -5 -440 7 -635 47 -140 29 -147 34 -165 93 -8 28 -15 56 -15 62 0 6 -15 43 -34 82 -57 119 -151 203 -281 253 -87 34 -232 34 -335 1 -95 -30 -141 -29 -214 3 -171 76 -330 227 -415 395 -22 43 -22 45 -7 107 72 286 -93 562 -376 629 -35 8 -83 15 -108 15 -25 0 -50 4 -56 8 -7 4 -32 63 -57 132 -124 343 -167 592 -167 970 0 489 89 857 310 1287 147 286 303 496 541 728 227 221 421 357 714 500 302 148 548 224 871 270 73 10 179 13 404 10 275 -3 319 -6 445 -29z m335 -91 c16 -17 18 -66 5 -157 -9 -68 -16 -65 106 -42 92 17 156 34 209 57 34 15 36 14 120 -28 105 -53 118 -66 96 -97 -23 -32 -20 -100 4 -131 13 -16 20 -40 20 -69 0 -55 26 -107 66 -130 32 -19 64 -16 64 6 0 6 17 36 37 66 20 30 39 67 42 84 10 48 33 54 76 22 35 -27 36 -30 30 -75 -5 -40 6 -154 21 -203 8 -26 31 -29 59 -6 14 11 32 17 41 14 13 -5 14 1 9 38 -8 48 0 86 17 86 24 0 305 -294 369 -387 28 -41 29 -45 14 -57 -15 -11 -13 -22 25 -139 37 -115 76 -187 100 -187 5 0 6 16 3 35 -6 40 -7 40 38 21 45 -19 70 -48 108 -123 37 -74 37 -79 10 -86 -19 -5 -21 -11 -15 -41 7 -35 6 -36 -24 -36 -16 0 -30 -4 -30 -10 0 -18 -19 -10 -36 15 -12 19 -14 28 -5 39 9 11 3 19 -26 42 -21 15 -45 36 -55 46 -24 24 -34 23 -52 -4 -39 -56 6 -175 106 -281 37 -40 67 -80 68 -89 0 -21 16 -24 23 -5 4 8 6 7 6 -3 0 -8 -10 -35 -24 -59 -32 -55 -31 -66 6 -121 16 -25 48 -81 71 -124 72 -142 108 -187 108 -137 0 48 30 69 49 33 22 -40 22 -86 1 -127 -16 -32 -20 -58 -20 -137 0 -53 -4 -99 -9 -102 -10 -7 -21 27 -21 67 0 34 -13 61 -50 103 -30 35 -110 175 -110 193 0 28 -44 55 -99 59 l-56 5 25 -21 25 -21 -26 -1 c-16 0 -32 -9 -41 -22 -14 -21 -24 -23 -94 -24 -46 0 -82 4 -87 10 -6 8 -10 7 -14 -1 -5 -15 -39 -17 -47 -4 -6 9 -26 7 -83 -11 -22 -6 -38 -20 -48 -42 -9 -18 -24 -42 -34 -53 -30 -32 -41 -59 -41 -103 0 -54 18 -95 69 -154 33 -38 41 -54 37 -73 -6 -22 3 -47 48 -128 21 -40 21 -60 -1 -49 -10 5 -45 8 -78 9 l-60 0 0 -55 c0 -30 3 -72 7 -92 l7 -38 -31 16 c-38 20 -44 14 -24 -25 9 -16 16 -53 16 -81 0 -41 -5 -56 -25 -76 -34 -33 -32 -45 5 -32 33 11 50 34 50 67 0 11 5 23 10 26 8 5 9 -14 5 -57 -7 -85 4 -102 44 -64 27 26 31 27 37 12 4 -10 4 -46 1 -81 -4 -45 -3 -65 6 -68 8 -2 6 -9 -6 -21 -20 -21 -21 -28 -5 -44 9 -9 7 -21 -10 -51 -13 -22 -18 -42 -13 -45 8 -5 64 52 75 78 3 7 9 5 16 -7 9 -14 15 -15 32 -6 20 11 21 10 14 -29 -3 -23 -2 -43 3 -47 6 -3 31 15 57 39 l46 45 -21 29 c-26 37 -26 43 -2 74 13 16 17 29 10 39 -4 8 -6 22 -3 32 5 15 1 17 -20 11 -25 -6 -26 -5 -16 21 14 37 13 55 -4 55 -11 0 -13 9 -9 35 4 23 1 42 -8 53 -32 39 -49 83 -49 126 0 52 15 60 32 19 6 -16 39 -86 73 -158 34 -71 74 -166 90 -210 16 -44 32 -84 36 -88 4 -5 12 8 19 28 14 41 34 52 106 56 49 3 49 3 52 -29 6 -58 -48 -252 -69 -252 -5 0 -27 29 -50 65 -41 65 -66 85 -54 43 4 -13 36 -85 72 -162 75 -159 80 -192 38 -236 -53 -55 -130 -62 -220 -19 -22 11 -64 22 -95 25 -30 4 -64 12 -75 19 -13 8 -28 9 -43 4 -39 -14 -131 1 -143 23 -6 12 -19 18 -32 16 -12 -1 -28 1 -34 5 -7 4 -36 1 -65 -8 -63 -18 -75 -10 -57 40 9 25 10 38 3 43 -15 10 -34 70 -34 109 0 26 5 35 25 43 21 8 55 55 55 76 0 3 -14 4 -31 0 -27 -5 -30 -4 -24 12 22 53 14 75 -33 93 -19 7 -23 14 -18 32 34 120 34 122 20 137 -21 22 -65 -5 -76 -48 -10 -37 -27 -41 -46 -11 -9 13 -19 18 -32 14 -10 -3 -21 -1 -25 5 -11 18 -24 1 -30 -44 -10 -62 14 -97 103 -153 42 -25 70 -49 65 -54 -11 -11 -136 -54 -180 -62 -62 -12 -25 28 49 52 20 7 39 18 42 26 5 15 -21 35 -45 35 -7 0 -41 28 -76 61 -35 34 -67 58 -71 55 -4 -4 -14 -41 -22 -83 -15 -73 -16 -75 -52 -88 -20 -6 -44 -20 -53 -29 -20 -20 -35 -21 -35 -2 0 16 -75 102 -102 117 -26 14 -48 -5 -48 -42 0 -16 -4 -29 -8 -29 -4 0 -29 14 -55 30 -50 31 -85 37 -118 19 -22 -11 -19 -40 9 -72 39 -44 -39 -26 -94 23 -19 16 -41 30 -48 30 -20 0 -27 -27 -10 -40 20 -17 18 -32 -10 -60 l-24 -25 26 -27 c29 -32 25 -43 -9 -29 -13 6 -80 17 -149 25 -165 19 -206 29 -236 56 -28 27 -30 46 -8 71 33 37 -21 88 -79 74 -50 -13 -54 -32 -14 -73 38 -39 49 -69 21 -58 -8 3 -45 13 -81 21 -36 8 -117 35 -179 60 -62 25 -118 45 -124 45 -5 0 -10 9 -10 20 0 24 -3 24 49 5 49 -17 71 -11 71 20 0 31 -54 56 -103 48 -21 -3 -42 -1 -50 5 -7 6 -41 10 -76 9 -58 -1 -65 1 -87 26 -13 16 -24 36 -24 46 0 10 -9 28 -19 40 -20 23 -41 21 -41 -5 0 -27 -33 -14 -144 54 -61 38 -151 93 -201 122 -92 55 -245 167 -245 180 0 7 -96 70 -108 70 -4 0 -59 20 -123 44 -146 56 -290 124 -351 168 -26 18 -75 53 -110 78 -35 25 -71 49 -81 55 -10 5 -28 25 -39 43 l-20 32 47 0 c45 0 51 3 106 60 72 75 110 79 170 19 44 -44 107 -6 87 52 -11 33 -127 156 -213 226 -33 28 -80 78 -104 113 l-43 64 4 131 c4 124 6 133 37 192 18 34 56 90 84 124 64 80 79 109 66 125 -15 18 2 22 38 9 27 -9 30 -13 20 -30 -6 -11 -16 -24 -22 -30 -20 -17 -82 -99 -88 -117 -10 -28 11 -21 62 20 25 21 75 58 110 82 35 25 68 56 73 70 6 14 13 65 18 114 8 99 19 116 76 116 26 0 37 7 54 35 35 56 51 60 94 21 26 -24 36 -42 36 -63 0 -39 -59 -121 -102 -142 -18 -9 -52 -34 -75 -57 -23 -23 -55 -50 -72 -60 -31 -18 -42 -56 -21 -69 23 -14 10 -44 -22 -53 -28 -7 -34 -13 -36 -40 -4 -40 17 -50 61 -29 64 30 140 56 148 51 13 -8 11 -40 -3 -51 -7 -6 -33 -13 -58 -17 -24 -4 -49 -11 -55 -15 -15 -12 -174 -81 -212 -92 -25 -8 -33 -16 -33 -34 0 -13 3 -26 8 -28 11 -8 109 12 192 38 42 13 123 29 180 35 58 7 131 21 162 31 32 10 70 19 87 19 16 0 42 7 57 15 37 19 54 19 54 1 0 -23 22 -31 35 -13 16 22 44 21 75 -3 14 -11 41 -20 60 -20 33 0 33 -1 17 -17 -15 -15 -44 -19 -165 -24 -113 -5 -161 -11 -206 -28 -33 -11 -76 -21 -96 -21 -21 0 -80 -13 -131 -29 -52 -16 -110 -32 -129 -36 -35 -7 -126 -45 -209 -88 -75 -37 -65 -47 43 -47 76 0 126 7 239 35 78 19 158 44 177 54 19 11 81 29 138 41 56 11 118 28 137 36 48 20 128 18 220 -6 42 -11 81 -17 86 -14 5 3 9 17 9 32 0 19 16 43 51 80 28 28 54 52 58 52 5 0 14 6 20 14 9 11 7 15 -9 19 -11 3 -19 11 -18 19 2 7 -3 12 -10 10 -8 -1 -11 2 -6 9 9 15 167 89 190 89 24 1 56 28 73 62 14 27 39 44 49 33 3 -3 -3 -11 -13 -19 -18 -13 -18 -14 3 -36 21 -22 23 -23 41 -6 17 16 19 16 24 -4 11 -41 107 -12 125 38 8 24 7 36 -8 60 -14 23 -20 57 -23 139 -3 71 -11 123 -23 151 -15 38 -16 44 -2 55 19 15 42 83 34 102 -3 8 -12 15 -21 15 -11 0 -15 11 -15 43 -1 79 -16 125 -59 181 -24 30 -58 64 -77 75 -58 34 -45 51 39 51 75 1 153 12 165 25 4 3 7 23 7 43 0 41 10 46 98 57 28 4 57 15 68 26 10 10 22 19 25 19 3 0 20 11 37 24 33 25 155 88 194 100 16 5 25 2 33 -14 16 -30 3 -58 -34 -74 -21 -9 -42 -29 -57 -57 -26 -47 -32 -51 -159 -105 -47 -19 -100 -45 -118 -56 -33 -20 -33 -21 -15 -40 25 -24 113 -34 171 -19 46 13 82 56 82 97 0 25 55 56 142 80 68 18 92 38 83 68 -25 77 -14 97 25 46 32 -41 43 -25 24 35 -28 90 -5 164 62 206 33 20 36 20 75 5 46 -19 59 -15 59 19 0 45 10 57 44 51 17 -4 37 -13 46 -21z m-1785 -226 c28 -6 73 -13 102 -17 29 -5 60 -15 70 -23 10 -8 30 -21 44 -28 15 -7 38 -24 53 -37 22 -21 24 -28 15 -45 -15 -29 -36 -34 -64 -15 -24 16 -28 15 -107 -30 -46 -26 -94 -58 -108 -72 -23 -22 -42 -37 -129 -94 -14 -10 -36 -18 -48 -18 -13 0 -32 -9 -43 -20 -11 -11 -38 -23 -59 -26 -40 -6 -55 -21 -42 -43 6 -9 16 -8 44 4 40 17 77 20 77 7 0 -12 -205 -99 -261 -111 -24 -6 -45 -15 -47 -20 -8 -24 -20 -9 -19 24 2 34 3 34 38 29 39 -7 79 9 79 29 0 14 -27 39 -60 57 -16 9 -25 9 -33 1 -6 -6 -21 -11 -34 -11 -27 0 -30 -21 -7 -41 14 -12 14 -14 -5 -21 -12 -4 -30 -27 -40 -51 -22 -51 -43 -63 -65 -38 -16 17 -15 27 13 140 19 76 41 140 59 170 16 26 32 56 36 68 6 18 109 123 121 123 2 0 23 13 47 29 24 15 66 36 93 45 28 9 59 23 69 31 23 17 133 19 211 4z m699 -81 c15 -24 -8 -61 -54 -87 -71 -40 -97 -21 -54 40 27 39 70 71 88 65 5 -1 14 -10 20 -18z m-344 -109 c0 -6 -4 -7 -10 -4 -5 3 -10 11 -10 16 0 6 5 7 10 4 6 -3 10 -11 10 -16z m208 -31 c14 -14 16 -38 3 -38 -12 0 -41 29 -41 41 0 13 24 11 38 -3z m-678 -218 c12 -8 12 -10 -3 -16 -22 -8 -50 3 -42 16 8 12 25 13 45 0z m600 -469 c0 -5 -16 -22 -37 -37 -20 -16 -60 -49 -90 -73 -30 -24 -56 -41 -59 -39 -5 6 52 59 116 108 25 19 47 38 48 42 5 11 22 10 22 -1z m274 -195 c-6 -16 -34 -30 -42 -21 -6 5 28 34 40 35 4 0 5 -6 2 -14z m2880 -832 c9 -22 -3 -32 -14 -14 -12 19 -12 30 -1 30 5 0 12 -7 15 -16z m-230 -93 c-7 -7 -54 42 -54 56 0 7 13 -1 29 -19 16 -18 27 -35 25 -37z m256 -355 c0 -17 -14 -29 -23 -20 -8 8 3 34 14 34 5 0 9 -6 9 -14z m56 -153 c-3 -21 -6 -52 -6 -70 0 -27 -6 -35 -34 -48 -19 -9 -55 -39 -80 -66 -40 -43 -66 -60 -66 -43 0 16 47 82 64 90 30 13 93 102 101 141 9 47 29 43 21 -4z m-1819 -875 c28 -26 30 -48 3 -48 -26 0 -61 35 -54 55 8 21 24 19 51 -7z m508 -71 c58 -36 95 -67 95 -80 0 -17 -64 3 -106 33 -23 16 -62 35 -88 42 -50 13 -56 21 -28 37 24 15 69 4 127 -32z m-336 19 c9 -11 8 -15 -5 -20 -23 -9 -64 4 -64 20 0 18 54 19 69 0z m-3181 -646 c-4 -66 -11 -92 -41 -152 -86 -174 -246 -267 -436 -255 -85 5 -162 25 -168 43 -2 5 46 9 109 9 86 0 125 4 161 18 46 18 47 19 47 63 0 77 62 115 135 82 23 -10 29 -8 61 23 46 44 90 122 104 183 6 27 13 53 16 58 13 21 16 2 12 -72z m-61 -444 c105 -50 187 -111 272 -202 80 -85 151 -197 151 -235 -1 -13 -11 -67 -23 -119 l-23 -95 -59 -48 c-79 -63 -217 -133 -312 -158 -53 -14 -113 -21 -189 -22 -124 -2 -115 -6 -232 100 -65 59 -71 81 -72 254 0 145 18 233 74 354 52 113 83 147 153 169 32 10 69 25 83 32 36 20 90 11 177 -30z m1353 -650 c0 -58 -35 -170 -70 -226 -111 -174 -336 -254 -529 -187 -73 25 -97 51 -34 36 66 -15 167 -10 237 11 l66 21 0 49 c0 41 4 52 26 69 30 23 70 27 109 9 23 -10 29 -8 59 21 42 41 79 108 101 184 20 68 35 74 35 13z m-1610 -544 c0 -21 -7 -64 -15 -95 -41 -156 -142 -270 -290 -327 -80 -31 -225 -33 -299 -4 -51 20 -81 54 -35 38 43 -14 191 -7 249 13 l55 18 -3 41 c-6 76 62 123 130 90 30 -15 33 -15 56 6 42 38 99 134 118 198 20 69 34 77 34 22z"/>
 <path d="M5490 6166 c-69 -27 -97 -45 -145 -92 -93 -91 -128 -142 -121 -181 19 -109 14 -100 63 -107 76 -10 102 -7 158 19 55 27 112 89 135 151 15 36 50 173 50 191 0 14 -35 53 -47 52 -5 0 -46 -15 -93 -33z"/>
 <path d="M5016 6154 c-9 -23 -8 -24 18 -24 33 0 42 16 17 29 -26 14 -28 14 -35 -5z"/>
 <path d="M5189 6146 c-57 -15 -93 -47 -85 -74 4 -11 14 -23 22 -26 29 -11 97 15 133 51 34 34 34 36 16 49 -22 16 -26 16 -86 0z"/>
 <path d="M4745 5931 c-62 -15 -102 -46 -129 -99 -31 -61 8 -82 159 -82 l51 0 33 55 c37 62 42 102 15 122 -19 14 -79 16 -129 4z"/>
 <path d="M5887 5820 c-55 -44 -95 -210 -68 -283 10 -26 49 -67 63 -67 15 0 76 106 84 145 4 21 16 47 26 57 20 20 20 20 -7 81 -25 57 -48 87 -66 87 -3 0 -18 -9 -32 -20z"/>
 <path d="M5064 5816 c-22 -17 -11 -35 13 -20 19 12 29 34 16 34 -5 0 -18 -6 -29 -14z"/>
 <path d="M5545 5809 c-96 -29 -214 -156 -215 -230 0 -58 31 -180 51 -200 45 -45 130 -4 198 96 53 78 104 282 81 326 -12 21 -61 25 -115 8z"/>
 <path d="M6417 5754 c-9 -9 -9 -115 -1 -166 8 -46 25 -48 55 -7 52 73 42 158 -21 174 -14 3 -29 3 -33 -1z"/>
 <path d="M6058 5719 c-16 -11 -28 -26 -28 -33 0 -6 -9 -29 -20 -51 -24 -47 -19 -70 20 -90 15 -8 31 -26 34 -40 8 -31 32 -32 57 -4 36 42 50 139 28 196 -18 48 -47 55 -91 22z"/>
 <path d="M6275 5696 c-11 -8 -31 -34 -44 -59 -23 -43 -24 -48 -11 -89 19 -57 74 -115 95 -98 39 33 65 202 34 232 -23 24 -53 29 -74 14z"/>
 <path d="M4908 5674 c-3 -3 -29 -7 -57 -9 -84 -6 -136 -57 -129 -126 4 -44 30 -49 104 -19 51 21 124 86 124 111 0 29 -28 58 -42 43z"/>
 <path d="M5037 5541 c-23 -22 -39 -42 -35 -46 9 -9 67 11 98 34 20 16 22 21 11 35 -19 23 -27 21 -74 -23z"/>
 <path d="M6368 5449 c-25 -14 -51 -109 -42 -154 7 -39 42 -71 58 -55 15 15 26 12 26 -6 0 -8 14 -30 31 -47 l31 -31 19 25 c26 35 44 121 33 161 -7 25 -20 38 -51 53 -23 11 -52 30 -65 42 -17 16 -27 19 -40 12z"/>
 <path d="M5647 5401 c-36 -32 -107 -142 -107 -166 0 -14 29 -35 49 -35 29 0 78 72 95 141 23 88 13 104 -37 60z"/>
 <path d="M5141 5398 c-47 -23 -65 -42 -80 -87 -22 -68 -15 -92 41 -144 60 -55 78 -56 138 -8 59 47 76 166 32 221 -27 34 -84 41 -131 18z"/>
 <path d="M5986 5413 c-11 -11 -6 -23 9 -23 8 0 15 4 15 9 0 13 -16 22 -24 14z"/>
 <path d="M5855 5368 c-33 -26 -66 -96 -90 -193 -24 -95 -24 -154 -1 -187 17 -26 19 -27 52 -13 47 19 50 4 10 -47 -67 -83 -84 -121 -96 -206 -16 -120 3 -145 79 -100 47 28 66 49 125 134 42 63 49 80 53 135 4 57 2 67 -21 94 -20 24 -27 28 -37 18 -25 -25 -32 -13 -26 47 6 57 42 160 56 160 3 0 12 9 18 19 10 15 8 30 -9 77 -11 33 -25 65 -31 72 -15 19 -51 14 -82 -10z"/>
 <path d="M4635 5369 c-36 -11 -64 -45 -65 -80 0 -67 112 -43 134 28 8 25 -9 63 -27 62 -7 0 -25 -5 -42 -10z"/>
 <path d="M4827 5325 c-50 -26 -118 -88 -143 -130 -34 -58 -32 -97 7 -129 36 -31 60 -32 114 -7 46 20 81 62 142 165 15 25 -3 62 -46 94 -36 26 -38 26 -74 7z"/>
 <path d="M5990 5296 c0 -2 7 -17 15 -32 15 -29 22 -13 9 20 -5 14 -24 23 -24 12z"/>
 <path d="M5985 5212 c-14 -9 -48 -63 -43 -67 2 -2 18 14 36 36 30 35 33 50 7 31z"/>
 <path d="M6130 5164 c0 -8 5 -12 10 -9 6 4 8 11 5 16 -9 14 -15 11 -15 -7z"/>
 <path d="M6585 5160 c-7 -11 23 -60 36 -60 16 0 28 44 17 58 -12 14 -44 16 -53 2z"/>
 <path d="M6700 5160 c0 -5 5 -10 10 -10 6 0 10 5 10 10 0 6 -4 10 -10 10 -5 0 -10 -4 -10 -10z"/>
 <path d="M4510 5130 c0 -5 5 -10 10 -10 6 0 10 5 10 10 0 6 -4 10 -10 10 -5 0 -10 -4 -10 -10z"/>
 <path d="M5537 5078 c-141 -143 -270 -358 -253 -422 3 -12 14 -32 24 -45 19 -23 19 -23 47 -5 15 10 44 41 65 69 56 75 187 314 200 363 23 89 -15 108 -83 40z"/>
 <path d="M6205 5056 c-14 -24 -29 -62 -32 -83 -3 -21 -10 -43 -15 -49 -10 -13 38 -57 53 -48 16 9 50 141 47 180 -4 53 -22 53 -53 0z"/>
 <path d="M5305 5070 c-8 -13 15 -24 27 -12 6 6 4 11 -6 15 -8 3 -18 2 -21 -3z"/>
 <path d="M4871 4934 c-117 -112 -121 -118 -121 -158 0 -23 6 -50 13 -60 11 -15 19 -16 61 -6 101 22 160 66 202 151 33 63 45 166 23 180 -35 22 -59 7 -178 -107z"/>
 <path d="M4025 5010 c-4 -6 -3 -16 3 -22 6 -6 12 -6 17 2 4 6 3 16 -3 22 -6 6 -12 6 -17 -2z"/>
 <path d="M4383 4973 c-30 -6 -83 -68 -83 -97 0 -59 89 -77 140 -27 63 60 61 132 -3 130 -18 -1 -42 -4 -54 -6z"/>
 <path d="M2825 4950 c-11 -17 5 -32 21 -19 7 6 11 15 8 20 -7 12 -21 11 -29 -1z"/>
 <path d="M4180 4943 c-49 -19 -95 -118 -69 -149 46 -55 143 60 110 132 -11 25 -15 26 -41 17z"/>
 <path d="M3995 4918 c-32 -19 -45 -35 -45 -57 0 -24 29 -61 47 -61 19 0 52 55 55 91 2 28 -1 34 -17 36 -11 2 -29 -2 -40 -9z"/>
 <path d="M4583 4894 c-20 -32 -7 -60 27 -56 41 4 67 63 34 76 -29 11 -43 6 -61 -20z"/>
 <path d="M6464 4899 c-15 -17 -19 -36 -18 -93 0 -87 14 -116 54 -116 35 0 90 51 90 84 0 39 -31 116 -53 131 -29 21 -50 19 -73 -6z"/>
 <path d="M2696 4771 c-4 -5 -2 -12 3 -15 5 -4 12 -2 15 3 4 5 2 12 -3 15 -5 4 -12 2 -15 -3z"/>
 <path d="M3921 4771 c-9 -6 -15 -27 -15 -58 -1 -45 1 -48 24 -48 33 0 55 44 42 83 -9 29 -28 38 -51 23z"/>
 <path d="M5123 4751 c-35 -16 -44 -26 -53 -60 -6 -22 -10 -68 -9 -101 2 -49 -2 -66 -19 -88 -38 -48 -72 -109 -92 -165 -19 -54 -19 -54 2 -96 35 -72 85 -76 159 -14 36 31 47 66 58 193 7 80 16 119 37 165 15 32 29 80 32 106 4 40 1 48 -19 63 -30 20 -44 20 -96 -3z"/>
 <path d="M5582 4723 c-47 -42 -61 -81 -62 -171 0 -97 40 -122 84 -54 39 58 61 249 31 259 -6 2 -30 -14 -53 -34z"/>
 <path d="M4535 4706 c-34 -15 -145 -119 -145 -136 0 -24 21 -48 51 -59 42 -15 108 -14 138 2 31 15 59 70 67 129 5 39 3 48 -12 56 -36 18 -69 21 -99 8z"/>
 <path d="M3607 4684 c-3 -3 -64 -15 -134 -25 -140 -20 -163 -33 -163 -89 0 -32 18 -42 58 -34 18 4 32 1 40 -9 19 -22 -11 -47 -56 -47 -95 0 -153 -41 -133 -94 6 -14 15 -26 20 -26 16 0 41 -56 41 -91 l0 -32 63 6 c74 7 97 15 97 33 0 7 9 18 21 25 12 6 38 48 59 93 22 45 50 92 63 104 14 13 27 36 30 51 3 16 13 36 21 44 26 25 38 67 25 83 -12 14 -41 19 -52 8z"/>
 <path d="M3790 4634 c-15 -38 -13 -44 15 -44 26 0 62 41 50 60 -13 21 -55 11 -65 -16z"/>
 <path d="M4038 4611 c-43 -36 -71 -51 -100 -51 -13 0 -45 -13 -71 -30 -26 -16 -50 -30 -52 -30 -13 0 -80 -73 -110 -120 -62 -99 -87 -157 -80 -190 7 -33 35 -46 65 -30 14 8 26 8 41 -1 12 -6 48 -15 81 -19 33 -5 71 -16 85 -25 23 -15 25 -22 21 -66 -4 -36 -13 -58 -32 -78 -40 -42 -35 -53 22 -45 71 10 76 16 68 103 -4 55 -1 94 11 148 16 63 22 75 50 90 32 17 33 17 53 -5 29 -31 63 -28 99 9 34 34 37 42 19 57 -29 22 -58 23 -87 3 -36 -26 -39 -26 -43 2 -7 50 -118 2 -118 -52 0 -9 -16 -35 -35 -57 -41 -45 -48 -28 -15 36 24 47 24 54 4 74 -22 23 -47 6 -73 -47 -19 -39 -27 -45 -69 -55 -26 -6 -51 -7 -56 -2 -4 4 -5 26 -1 48 7 44 50 95 113 137 52 34 148 65 181 59 60 -12 120 81 92 142 -14 31 -23 30 -63 -5z"/>
 <path d="M6578 4599 c-10 -5 -18 -21 -18 -34 0 -13 -7 -30 -15 -39 -9 -9 -15 -33 -15 -64 l0 -50 73 -53 c39 -30 76 -54 82 -54 5 0 15 18 21 40 6 22 16 39 20 39 5 -1 19 -5 32 -9 16 -4 22 -2 22 9 0 8 -5 18 -11 22 -13 7 -48 82 -49 102 0 8 8 10 25 6 40 -10 30 15 -12 33 -21 8 -50 23 -64 33 -34 25 -70 32 -91 19z"/>
 <path d="M3182 4580 c-29 -12 -72 -58 -72 -78 0 -15 37 -52 52 -52 16 0 63 28 79 47 27 33 30 52 9 73 -22 22 -33 23 -68 10z"/>
 <path d="M3720 4565 c-9 -10 -10 -19 -4 -25 13 -13 49 13 40 28 -10 16 -21 15 -36 -3z"/>
 <path d="M4189 4539 c-51 -55 -34 -116 37 -126 55 -7 104 32 104 83 0 75 -86 102 -141 43z"/>
 <path d="M5414 4536 c-3 -19 -3 -40 2 -47 11 -18 34 18 34 53 0 41 -28 36 -36 -6z"/>
 <path d="M5881 4535 c-29 -34 -32 -35 -54 -20 -13 8 -27 12 -30 8 -4 -3 -7 -33 -7 -65 0 -58 0 -58 30 -58 20 0 34 -8 45 -24 9 -13 23 -27 30 -30 17 -6 73 47 85 80 11 29 1 126 -14 136 -24 17 -55 6 -85 -27z"/>
 <path d="M4831 4522 c-51 -49 -62 -89 -31 -114 49 -40 97 -8 107 72 5 37 -9 80 -27 80 -5 0 -27 -17 -49 -38z"/>
 <path d="M6311 4531 c-8 -5 -11 -16 -6 -30 7 -24 23 -28 31 -7 8 22 -9 47 -25 37z"/>
 <path d="M5261 4516 c-19 -23 -19 -70 1 -74 22 -4 41 33 34 64 -7 27 -18 30 -35 10z"/>
 <path d="M2985 4498 c-17 -13 -41 -22 -61 -21 -40 1 -57 -16 -52 -54 l3 -28 85 3 c76 4 87 6 108 29 30 36 29 71 -4 83 -37 14 -48 13 -79 -12z"/>
 <path d="M3611 4470 c-47 -48 -37 -71 21 -46 74 31 84 54 32 70 -16 5 -30 -1 -53 -24z"/>
 <path d="M4564 4406 c-35 -15 -51 -55 -34 -85 18 -35 131 -56 158 -29 16 16 15 80 0 101 -18 23 -86 30 -124 13z"/>
 <path d="M6280 4405 c-7 -9 -10 -19 -6 -22 8 -9 38 9 44 25 5 17 -23 15 -38 -3z"/>
 <path d="M5326 4358 c-9 -12 -16 -27 -16 -32 0 -5 -11 -33 -25 -63 -29 -59 -49 -154 -40 -182 11 -37 52 -73 81 -73 90 0 125 192 58 323 -27 55 -36 59 -58 27z"/>
 <path d="M3044 4345 c-16 -24 -16 -26 7 -46 27 -24 72 -22 77 3 3 18 -39 68 -57 68 -6 0 -18 -11 -27 -25z"/>
 <path d="M3559 4345 c-48 -36 -99 -135 -69 -135 5 0 40 29 76 65 56 55 64 67 54 80 -17 20 -20 19 -61 -10z"/>
 <path d="M5521 4347 c-25 -39 -30 -78 -20 -169 17 -164 33 -192 103 -174 58 14 51 137 -16 287 -33 75 -48 87 -67 56z"/>
 <path d="M5707 4363 c-11 -11 -8 -117 4 -154 29 -86 63 -72 53 21 -9 91 -37 154 -57 133z"/>
 <path d="M4333 4299 c-44 -28 -43 -53 4 -78 53 -28 133 -2 133 43 0 54 -77 74 -137 35z"/>
 <path d="M6290 4310 c0 -6 10 -15 23 -19 22 -9 22 -9 -6 -20 -16 -6 -33 -11 -39 -11 -5 0 -7 -7 -4 -16 3 -9 6 -24 6 -35 0 -26 46 -26 60 0 14 27 13 84 -2 99 -15 15 -38 16 -38 2z"/>
 <path d="M6436 4295 c-3 -9 0 -15 9 -15 8 0 15 7 15 15 0 8 -4 15 -9 15 -5 0 -11 -7 -15 -15z"/>
 <path d="M4803 4254 c-9 -24 11 -38 36 -25 25 14 27 27 5 35 -25 9 -34 7 -41 -10z"/>
 <path d="M3476 4178 c-17 -24 -10 -46 32 -90 33 -36 57 -35 72 1 17 41 10 62 -29 88 -42 29 -56 29 -75 1z"/>
 <path d="M4593 4188 c-24 -11 -36 -34 -27 -49 3 -5 22 -9 43 -9 44 0 93 32 76 49 -16 16 -68 22 -92 9z"/>
 <path d="M3374 4179 c-10 -17 13 -36 27 -22 12 12 4 33 -11 33 -5 0 -12 -5 -16 -11z"/>
 <path d="M4135 4176 c-55 -15 -62 -21 -70 -59 -4 -17 -15 -50 -25 -72 -10 -22 -20 -59 -21 -83 l-4 -43 55 -20 c30 -11 93 -33 140 -48 153 -52 360 -156 360 -182 0 -17 -24 -9 -183 67 l-160 77 -51 -16 c-28 -9 -89 -24 -137 -33 l-85 -18 -58 34 c-81 46 -126 87 -126 115 0 23 -19 50 -40 57 -6 2 -13 26 -15 53 -4 51 -22 75 -56 75 -26 0 -36 -20 -47 -95 -7 -55 -7 -76 4 -97 18 -35 18 -52 -1 -89 -15 -28 -15 -30 9 -38 13 -6 47 -27 76 -49 59 -44 146 -76 337 -122 96 -23 137 -38 152 -54 26 -27 61 -124 61 -166 0 -36 13 -63 46 -99 13 -14 24 -29 24 -32 0 -4 44 -36 98 -71 87 -57 155 -90 220 -105 l22 -5 -25 70 c-30 84 -31 102 -5 132 11 13 20 31 20 41 0 10 12 26 26 36 79 55 85 83 18 83 -40 0 -51 -5 -80 -35 -18 -19 -38 -35 -44 -35 -27 0 -72 -34 -96 -73 -15 -23 -28 -44 -30 -46 -2 -2 -17 8 -34 23 -17 14 -42 26 -54 26 -15 0 -32 13 -50 38 l-26 37 27 12 c16 7 37 12 49 13 47 1 129 33 158 63 87 88 228 189 252 180 7 -2 17 -18 23 -34 5 -16 25 -38 43 -49 61 -37 105 -19 89 36 -7 23 -4 35 10 53 41 50 16 91 -56 91 -30 0 -36 3 -31 16 16 41 16 63 2 104 -8 24 -14 45 -13 47 2 1 30 5 63 9 99 11 104 15 104 76 0 29 -3 63 -6 75 -8 29 -51 55 -133 83 -64 21 -65 21 -90 2 -42 -31 -48 -64 -23 -124 12 -29 25 -68 28 -85 6 -29 4 -33 -14 -33 -29 0 -85 -58 -97 -100 -11 -37 -46 -53 -68 -31 -6 6 -19 11 -28 11 -29 0 -42 26 -34 67 l7 38 22 -27 c29 -36 52 -35 72 3 18 36 12 90 -12 109 -12 11 -19 9 -38 -9 l-23 -22 -6 28 c-13 65 -76 105 -107 68 -7 -8 -17 -49 -23 -90 -11 -73 -12 -75 -39 -75 -39 0 -135 33 -219 76 -38 19 -69 37 -69 39 0 1 9 22 20 46 11 24 20 53 20 65 0 11 16 34 35 51 57 51 45 63 -40 39z m-445 -241 c0 -8 -4 -15 -10 -15 -5 0 -10 7 -10 15 0 8 5 15 10 15 6 0 10 -7 10 -15z m690 -230 c47 -25 100 -53 118 -62 38 -20 40 -32 7 -67 -27 -29 -34 -30 -87 -15 -28 7 -38 15 -38 30 0 12 -13 33 -28 47 -51 49 -88 112 -64 112 4 0 45 -21 92 -45z"/>
 <path d="M4390 3590 c0 -5 5 -10 10 -10 6 0 10 5 10 10 0 6 -4 10 -10 10 -5 0 -10 -4 -10 -10z"/>
 <path d="M3394 4117 c-8 -22 11 -46 26 -31 7 7 5 17 -4 30 -14 18 -15 18 -22 1z"/>
 <path d="M4305 4105 c-16 -8 -42 -14 -57 -15 -34 0 -58 -33 -58 -80 0 -49 12 -64 46 -57 100 20 130 29 146 47 28 30 39 66 28 95 -8 20 -16 25 -42 24 -18 0 -46 -7 -63 -14z"/>
 <path d="M3135 4086 c-19 -29 -8 -61 25 -71 44 -14 68 46 32 78 -25 23 -39 21 -57 -7z"/>
 <path d="M3462 4089 c2 -7 10 -15 17 -17 8 -3 12 1 9 9 -2 7 -10 15 -17 17 -8 3 -12 -1 -9 -9z"/>
 <path d="M3803 4070 c-13 -16 -23 -40 -23 -55 0 -26 2 -27 37 -22 20 4 43 13 52 21 13 13 13 19 1 41 -23 42 -42 46 -67 15z"/>
 <path d="M6200 4090 c0 -5 5 -10 10 -10 6 0 10 5 10 10 0 6 -4 10 -10 10 -5 0 -10 -4 -10 -10z"/>
 <path d="M2937 4063 c-13 -12 -7 -41 9 -47 9 -3 33 -6 54 -6 21 0 43 -6 50 -15 12 -14 15 -14 31 1 24 22 24 51 0 64 -22 11 -134 14 -144 3z"/>
 <path d="M5104 4057 c-7 -20 1 -47 15 -47 17 0 22 33 7 49 -14 13 -16 13 -22 -2z"/>
 <path d="M3502 4038 c-23 -23 -7 -68 25 -68 18 0 28 47 13 65 -15 18 -22 19 -38 3z"/>
 <path d="M3411 4021 c-9 -16 -5 -27 24 -65 42 -56 67 -81 94 -95 28 -15 61 -14 61 3 0 14 -52 61 -85 78 -11 5 -29 28 -40 51 -23 48 -39 56 -54 28z"/>
 <path d="M5790 3959 c0 -42 14 -79 30 -79 11 0 13 43 4 89 -10 47 -34 40 -34 -10z"/>
 <path d="M6090 3970 c0 -5 5 -10 10 -10 6 0 10 5 10 10 0 6 -4 10 -10 10 -5 0 -10 -4 -10 -10z"/>
 <path d="M6130 3952 c0 -10 6 -26 13 -36 13 -18 15 -18 48 -1 20 10 29 12 22 4 -20 -21 -16 -49 7 -49 16 0 20 7 20 35 0 34 -1 35 -40 35 -27 0 -43 5 -46 15 -8 21 -24 19 -24 -3z"/>
 <path d="M5661 3895 c-45 -52 -40 -100 16 -152 31 -30 39 -29 74 6 33 33 38 75 15 120 -13 24 -55 61 -70 61 -2 0 -18 -16 -35 -35z"/>
 <path d="M5170 3905 c-14 -17 -17 -89 -5 -124 9 -30 60 -54 96 -46 38 9 59 40 59 88 0 53 -45 97 -100 97 -22 0 -43 -7 -50 -15z"/>
 <path d="M5460 3840 c-35 -35 7 -83 48 -54 24 17 28 44 10 62 -17 17 -35 15 -58 -8z"/>
 <path d="M4964 3827 c-8 -22 11 -46 26 -31 7 7 5 17 -4 30 -14 18 -15 18 -22 1z"/>
 <path d="M3490 3750 c0 -5 5 -10 10 -10 6 0 10 5 10 10 0 6 -4 10 -10 10 -5 0 -10 -4 -10 -10z"/>
 <path d="M5045 3683 c-16 -15 -35 -55 -35 -72 0 -13 33 -47 59 -60 14 -8 37 -10 57 -6 39 7 50 33 40 89 -11 57 -84 87 -121 49z"/>
 <path d="M5361 3661 c-18 -12 -19 -105 -1 -126 15 -18 90 -20 112 -2 66 52 -39 173 -111 128z"/>
 <path d="M5618 3605 c-42 -60 -42 -74 5 -117 53 -48 87 -32 87 39 0 40 -28 115 -47 126 -5 3 -25 -19 -45 -48z"/>
 <path d="M5540 3620 c0 -5 5 -10 10 -10 6 0 10 5 10 10 0 6 -4 10 -10 10 -5 0 -10 -4 -10 -10z"/>
 <path d="M6205 3570 c-4 -7 -23 -19 -43 -27 -49 -20 -102 -62 -102 -80 0 -10 6 -13 18 -8 9 4 38 10 65 14 56 9 57 10 73 59 13 35 4 67 -11 42z"/>
 <path d="M4920 3490 c-25 -25 -16 -47 33 -83 61 -46 77 -51 96 -30 9 10 20 26 23 35 13 33 -61 98 -112 98 -11 0 -29 -9 -40 -20z"/>
 <path d="M5146 3502 c-32 -7 -59 -38 -52 -60 8 -25 91 -102 109 -102 46 0 90 78 67 119 -17 33 -79 54 -124 43z"/>
 <path d="M4845 3450 c-4 -7 -3 -16 3 -22 14 -14 45 -2 40 15 -6 16 -34 21 -43 7z"/>
 <path d="M5560 3410 c-35 -35 -26 -72 30 -124 27 -25 56 -46 64 -46 26 0 36 63 15 102 -12 22 -75 88 -84 88 -3 0 -14 -9 -25 -20z"/>
 <path d="M3992 3333 c-12 -22 1 -58 23 -67 22 -8 35 1 35 25 0 50 -40 77 -58 42z"/>
 <path d="M4916 3315 c-15 -14 -39 -28 -54 -31 -15 -4 -50 -19 -78 -35 -28 -16 -64 -29 -78 -29 -69 0 -79 -41 -21 -85 40 -31 46 -31 75 0 21 22 25 23 44 10 30 -21 44 -19 83 15 18 17 44 30 56 30 37 0 58 22 64 67 4 33 1 45 -16 62 -27 27 -42 27 -75 -4z"/>
 <path d="M5358 3330 c-60 -18 -90 -76 -68 -131 27 -64 97 -54 147 21 28 41 29 74 3 100 -21 21 -38 23 -82 10z"/>
 <path d="M4087 3303 c-15 -14 -7 -63 12 -73 28 -14 31 -13 31 16 0 43 -25 76 -43 57z"/>
 <path d="M5062 3289 c2 -6 8 -10 13 -10 5 0 11 4 13 10 2 6 -4 11 -13 11 -9 0 -15 -5 -13 -11z"/>
 <path d="M4160 3261 c0 -32 22 -56 45 -47 21 8 19 32 -5 56 -28 28 -40 25 -40 -9z"/>
 <path d="M5091 3193 c-25 -20 -44 -92 -35 -129 3 -13 15 -29 26 -35 16 -9 24 -7 40 10 47 51 63 142 29 161 -27 14 -35 13 -60 -7z"/>
 <path d="M5496 3164 c-20 -19 -20 -37 -1 -74 17 -33 40 -38 71 -16 19 13 24 12 59 -20 60 -53 81 -30 50 53 -17 44 -19 45 -53 40 -26 -5 -41 -1 -60 13 -30 24 -46 25 -66 4z"/>
 <path d="M4921 3106 c-20 -24 -9 -51 19 -51 19 0 24 4 22 20 -2 11 -9 26 -16 33 -10 11 -15 10 -25 -2z"/>
 <path d="M5307 3113 c-14 -13 -6 -46 15 -65 26 -23 42 -19 46 11 5 33 -42 74 -61 54z"/>
 <path d="M6842 3109 c2 -7 10 -15 17 -17 8 -3 12 1 9 9 -2 7 -10 15 -17 17 -8 3 -12 -1 -9 -9z"/>
 <path d="M4385 3080 c-12 -19 29 -75 58 -78 35 -4 34 9 -4 53 -33 37 -44 42 -54 25z"/>
 <path d="M4777 3052 c-22 -24 -22 -66 0 -92 23 -27 109 -45 146 -31 53 20 28 71 -57 115 -58 31 -68 32 -89 8z"/>
 <path d="M6570 2920 c0 -5 5 -10 10 -10 6 0 10 5 10 10 0 6 -4 10 -10 10 -5 0 -10 -4 -10 -10z"/>
 <path d="M6630 2880 c0 -5 7 -10 15 -10 8 0 15 5 15 10 0 6 -7 10 -15 10 -8 0 -15 -4 -15 -10z"/>
 <path d="M4730 2870 c0 -5 5 -10 10 -10 6 0 10 5 10 10 0 6 -4 10 -10 10 -5 0 -10 -4 -10 -10z"/>
 <path d="M6587 2813 c-4 -3 -7 -16 -7 -27 1 -21 1 -21 15 -2 8 11 15 23 15 28 0 10 -14 11 -23 1z"/>
 <path d="M6360 2710 c0 -5 5 -10 10 -10 6 0 10 5 10 10 0 6 -4 10 -10 10 -5 0 -10 -4 -10 -10z"/>
 <path d="M3344 6135 c-4 -8 -3 -23 0 -32 6 -15 8 -15 16 -3 13 20 12 50 0 50 -6 0 -13 -7 -16 -15z"/>
 </g>
<g id="layer2" fill="#ffffff" stroke="none">
 <path d="M0 4800 l0 -4800 5000 0 5000 0 0 4800 0 4800 -5000 0 -5000 0 0 -4800z m4930 1912 c273 -50 358 -72 541 -146 368 -147 677 -334 940 -568 410 -367 740 -917 873 -1458 56 -228 67 -325 73 -630 6 -280 -2 -424 -33 -605 -88 -524 -379 -1094 -763 -1498 -371 -390 -940 -713 -1456 -826 -227 -50 -302 -56 -670 -56 -338 1 -355 2 -500 29 -82 15 -164 30 -181 33 -30 5 -31 3 -54 -58 -81 -225 -290 -364 -519 -346 -132 11 -222 49 -317 138 l-63 59 -104 0 c-70 0 -129 -6 -183 -20 -113 -28 -272 -109 -339 -173 -54 -51 -56 -54 -69 -133 -17 -101 -51 -173 -116 -246 -113 -127 -222 -177 -381 -178 -117 0 -199 22 -285 78 -219 142 -296 431 -178 664 56 111 191 221 316 259 52 16 75 29 93 53 39 52 105 201 120 274 17 77 20 309 5 362 -7 24 -31 54 -76 94 -126 113 -184 237 -184 395 0 150 37 246 136 350 34 37 92 84 129 105 49 29 64 43 60 55 -94 244 -151 454 -181 666 -27 187 -27 725 0 900 62 408 223 813 471 1185 114 171 197 273 345 421 451 454 1078 761 1710 838 41 5 221 8 400 7 278 -3 342 -6 440 -24z"/>
 <path d="M4130 6613 c-74 -8 -269 -45 -363 -69 -365 -92 -742 -277 -1047 -512 -123 -95 -402 -379 -495 -504 -221 -296 -391 -644 -480 -980 -107 -409 -121 -854 -39 -1268 30 -153 50 -225 115 -405 l50 -141 102 -12 c138 -16 224 -57 316 -149 132 -133 180 -306 135 -492 -16 -66 -16 -68 6 -112 63 -123 198 -268 313 -337 68 -41 164 -81 194 -82 12 0 57 11 100 25 105 33 176 40 261 25 146 -24 296 -128 360 -247 17 -33 42 -97 55 -143 28 -96 21 -91 166 -121 248 -51 647 -69 886 -40 509 61 962 243 1382 555 141 104 425 388 529 528 289 390 483 850 543 1293 21 154 22 161 10 143 -6 -11 -22 -18 -42 -18 -25 0 -42 -10 -74 -42 -50 -53 -72 -95 -112 -221 -22 -69 -31 -117 -31 -165 0 -101 -40 -253 -77 -294 -13 -15 -12 -24 12 -84 20 -49 26 -78 22 -107 -7 -48 -54 -128 -87 -144 -38 -19 -149 -16 -219 7 -33 10 -109 26 -169 35 -59 8 -138 22 -177 31 -49 11 -91 14 -143 9 -67 -6 -76 -5 -97 15 -19 18 -51 25 -207 45 -221 29 -466 68 -590 95 -61 13 -95 17 -102 10 -13 -13 -57 -13 -91 0 -14 5 -83 17 -153 25 -145 18 -187 28 -220 51 -12 8 -52 20 -87 25 -68 9 -162 39 -310 98 -87 35 -90 37 -103 79 -14 42 -14 42 -63 42 -68 0 -115 22 -140 65 -15 25 -28 35 -45 35 -14 0 -39 7 -57 16 -87 44 -375 224 -452 283 -48 36 -106 80 -129 97 -22 17 -106 57 -186 89 -223 89 -354 157 -475 248 -132 99 -163 144 -140 206 9 25 15 115 19 301 3 146 10 315 15 377 11 129 32 178 125 302 45 59 56 82 56 112 0 52 17 62 90 54 56 -6 60 -6 60 13 0 11 13 75 29 143 17 68 33 148 37 178 7 52 6 53 -14 42 -27 -15 -95 -14 -110 1 -33 33 4 251 64 369 77 154 146 218 321 301 l108 50 114 -6 c197 -12 255 -26 344 -85 42 -28 77 -55 77 -61 0 -5 12 -15 27 -22 14 -7 30 -21 35 -30 4 -10 12 -26 17 -35 11 -24 58 -28 82 -8 10 10 23 32 29 50 6 19 31 52 55 74 38 35 51 41 88 41 58 0 87 -22 87 -66 0 -51 -25 -91 -78 -125 l-47 -31 103 4 c108 4 121 10 122 53 1 36 16 47 86 61 48 10 86 26 124 53 140 98 272 141 325 107 32 -21 45 -14 45 25 0 38 30 96 68 132 22 21 44 30 86 36 31 4 58 10 60 12 24 23 -96 55 -320 84 -106 14 -578 19 -684 8z"/>
 <path d="M5190 6496 c0 -55 -28 -70 -84 -45 -20 10 -31 8 -61 -11 -63 -39 -80 -106 -51 -203 7 -25 11 -48 8 -51 -13 -14 -44 -4 -49 14 -3 11 -11 20 -19 20 -11 0 -11 -5 0 -32 21 -51 7 -72 -61 -92 -32 -10 -72 -22 -89 -27 -48 -15 -77 -47 -72 -80 3 -20 -2 -35 -17 -49 -29 -27 -118 -43 -178 -31 -49 9 -91 36 -81 53 8 12 138 77 209 103 50 19 65 30 92 71 18 27 49 57 68 66 26 14 35 25 35 44 0 13 -6 27 -14 30 -22 9 -186 -75 -236 -121 -25 -23 -54 -42 -65 -43 -11 -1 -45 -5 -75 -9 l-55 -8 -5 -45 c-6 -52 -11 -55 -160 -67 l-95 -8 37 -25 c20 -14 58 -52 85 -84 46 -57 48 -61 51 -133 4 -59 8 -75 23 -84 25 -13 25 -63 0 -113 -19 -36 -16 -73 8 -111 4 -5 6 -53 5 -105 -1 -77 2 -101 17 -126 20 -32 24 -61 13 -89 -15 -39 -134 -64 -134 -28 0 13 -3 14 -12 5 -18 -18 -46 -14 -60 8 -15 23 -28 26 -28 6 0 -18 -37 -41 -86 -56 -46 -13 -175 -79 -156 -80 8 0 12 -6 9 -12 -2 -7 4 -18 15 -24 17 -9 11 -17 -57 -78 -61 -55 -75 -73 -75 -97 0 -25 -4 -29 -27 -29 -16 0 -50 7 -77 15 -62 19 -173 19 -217 1 -19 -8 -72 -22 -119 -31 -47 -9 -110 -28 -141 -40 -31 -13 -112 -38 -180 -56 -100 -26 -144 -33 -231 -33 -110 -1 -129 4 -110 27 38 46 380 166 517 182 28 3 79 15 115 27 50 16 93 22 191 23 69 1 135 7 145 13 19 11 19 11 0 12 -10 0 -34 10 -54 22 -28 17 -38 19 -53 10 -26 -17 -50 -15 -64 4 -11 15 -15 15 -46 1 -19 -8 -58 -18 -87 -21 -29 -3 -67 -12 -84 -21 -17 -8 -50 -15 -72 -15 -69 -1 -177 -19 -260 -46 -43 -13 -105 -27 -137 -31 -58 -6 -59 -5 -59 19 0 33 7 38 125 87 55 23 114 48 130 56 17 8 46 17 66 20 43 6 68 30 51 47 -8 8 -20 6 -45 -6 -19 -9 -43 -16 -54 -16 -10 0 -31 -9 -48 -20 -40 -26 -53 -25 -67 5 -15 33 2 72 34 77 28 4 35 30 13 51 -25 25 -18 43 25 62 22 10 47 29 55 42 9 13 43 42 76 63 63 41 85 64 113 118 15 29 15 35 2 61 -13 24 -55 61 -70 61 -3 0 -19 -20 -36 -45 -26 -37 -36 -45 -63 -45 -51 0 -58 -11 -68 -101 -15 -139 -10 -131 -123 -213 -56 -41 -108 -82 -115 -90 -8 -9 -20 -16 -27 -16 -25 0 -15 37 24 87 21 26 41 56 45 66 3 9 11 17 17 17 21 0 9 28 -13 32 -20 4 -23 1 -20 -17 4 -19 -30 -73 -97 -155 -11 -14 -35 -55 -54 -91 -30 -60 -34 -78 -41 -183 l-7 -117 42 -65 c26 -39 72 -89 118 -127 111 -91 172 -148 172 -161 0 -6 9 -22 20 -36 11 -14 20 -37 20 -51 0 -28 -27 -59 -52 -59 -23 0 -75 29 -82 45 -10 27 -68 18 -109 -16 -20 -17 -37 -35 -37 -42 0 -6 -9 -21 -21 -33 -17 -18 -28 -21 -66 -16 l-45 5 48 -45 c140 -129 336 -242 559 -322 155 -56 206 -84 264 -144 46 -47 110 -92 281 -194 69 -42 152 -92 185 -112 58 -35 60 -36 67 -16 13 34 61 23 68 -15 16 -74 54 -101 127 -90 30 4 49 2 63 -8 13 -9 36 -13 63 -10 23 3 55 0 70 -6 24 -9 28 -16 25 -43 -3 -31 -5 -33 -43 -32 -22 1 -50 5 -62 9 -15 5 -23 3 -23 -3 0 -6 19 -17 43 -24 23 -6 51 -17 62 -24 19 -12 211 -75 268 -88 37 -9 34 1 -14 50 l-41 42 30 16 c45 23 94 20 120 -7 26 -27 27 -40 7 -57 -20 -17 -19 -43 3 -63 23 -21 32 -21 32 -2 0 24 18 18 22 -7 4 -26 27 -33 168 -48 52 -5 113 -13 135 -16 l40 -6 -25 26 -24 27 29 24 c26 21 29 26 18 44 -7 11 -13 28 -13 36 0 23 53 19 76 -6 21 -24 73 -53 81 -46 2 3 0 14 -6 25 -39 72 32 107 114 57 22 -14 43 -25 47 -25 4 0 14 13 23 30 23 45 54 40 106 -18 24 -26 49 -57 55 -67 10 -18 11 -18 31 2 12 12 34 24 51 28 25 5 31 12 37 43 19 107 27 132 41 132 8 0 40 -27 70 -59 30 -32 66 -62 82 -66 15 -4 33 -11 39 -17 16 -13 17 -38 2 -38 -17 0 -121 -52 -115 -57 6 -6 163 42 185 56 11 7 0 17 -43 43 -32 18 -70 40 -84 49 -23 13 -27 23 -30 69 -5 85 2 99 44 97 20 -2 42 -10 49 -20 16 -22 35 -22 35 1 0 34 29 62 66 62 40 0 43 -12 19 -105 -10 -38 -12 -61 -6 -63 6 -2 22 -13 36 -24 22 -17 26 -27 21 -49 -4 -24 -2 -29 14 -29 10 0 21 -3 24 -8 9 -15 -24 -72 -50 -84 -24 -11 -26 -16 -22 -65 3 -37 10 -58 23 -67 17 -12 18 -18 6 -56 -7 -23 -10 -44 -8 -47 3 -2 22 0 43 6 22 6 59 10 84 9 44 0 86 -19 73 -31 -3 -4 9 -7 28 -7 19 0 41 -6 47 -12 10 -10 17 -10 32 0 23 14 70 16 70 3 0 -5 26 -12 58 -16 31 -4 85 -17 120 -31 98 -38 155 -30 211 29 32 35 26 60 -54 231 -36 77 -65 147 -65 158 0 35 29 18 60 -37 17 -30 36 -57 41 -61 13 -7 35 49 59 149 30 123 30 121 -34 113 -85 -10 -83 -8 -111 -91 -6 -19 -7 -19 -20 6 -8 14 -24 54 -36 90 -12 35 -50 124 -85 197 -35 74 -67 145 -70 158 -11 44 -24 36 -24 -15 0 -27 4 -52 9 -56 6 -3 20 -26 32 -51 20 -39 21 -48 10 -66 -11 -18 -11 -20 4 -14 15 5 17 0 13 -39 -2 -37 0 -45 13 -45 28 0 34 -65 10 -98 -19 -27 -19 -28 0 -51 28 -35 23 -56 -23 -95 -53 -46 -68 -46 -68 -1 0 31 -3 35 -25 35 -14 0 -25 6 -25 13 -1 6 -7 -1 -14 -18 -16 -37 -51 -69 -65 -60 -15 9 -13 36 4 59 10 13 12 32 8 62 -5 39 -3 44 13 44 15 0 16 2 5 9 -10 7 -14 29 -12 82 l2 74 -28 -28 c-43 -41 -53 -35 -54 31 -1 31 -3 49 -6 39 -2 -9 -17 -24 -33 -32 -56 -29 -82 -10 -36 26 35 27 43 98 18 149 -23 47 -15 68 18 50 12 -6 23 -10 24 -8 2 2 -2 36 -7 77 -10 67 -9 74 8 87 22 17 88 18 117 3 34 -18 34 0 0 62 -22 40 -32 70 -30 94 2 28 -5 42 -34 72 -42 45 -64 84 -73 136 -9 46 11 124 34 137 10 5 26 25 36 44 12 22 33 41 55 50 19 8 29 15 23 15 -18 1 -16 41 2 41 8 0 15 -8 15 -19 0 -14 10 -20 42 -25 27 -5 44 -3 49 5 4 7 12 8 20 3 7 -4 43 -9 80 -11 56 -3 71 0 86 15 10 11 27 24 38 30 17 10 18 11 3 12 -10 0 -18 5 -18 10 0 18 141 8 150 -10 5 -8 24 -50 44 -92 20 -42 57 -104 83 -138 38 -50 47 -72 52 -118 6 -52 7 -47 13 55 4 88 10 119 25 144 17 26 19 37 10 63 -5 17 -11 37 -13 44 -6 22 -34 13 -34 -10 0 -13 -5 -30 -10 -38 -9 -13 -14 -10 -34 14 -13 16 -45 70 -72 120 -26 50 -62 114 -81 142 -18 28 -33 57 -33 65 1 8 11 34 24 58 26 50 29 44 -59 135 -53 54 -93 121 -119 199 -14 41 -14 55 -4 89 11 39 13 40 47 34 23 -3 48 -18 68 -40 18 -19 38 -36 45 -38 10 -4 10 -8 0 -21 -19 -22 2 -64 24 -46 7 6 25 9 38 7 22 -4 23 -3 15 19 -12 31 -12 29 11 51 l21 19 -21 49 c-28 63 -64 110 -100 129 -39 20 -40 20 -40 -20 0 -40 -11 -44 -39 -14 -28 30 -47 73 -81 185 -33 105 -35 125 -20 140 12 12 -21 60 -101 148 l-54 59 -6 -50 c-8 -60 -43 -113 -75 -113 -20 0 -22 7 -29 75 -4 41 -4 88 0 105 6 26 11 30 38 30 32 1 31 2 -55 85 -48 47 -92 85 -98 85 -6 0 -10 -27 -10 -65 0 -54 -3 -65 -17 -65 -9 0 -24 -7 -33 -15 -19 -17 -56 -10 -66 13 -15 36 -31 187 -22 217 7 26 5 33 -23 58 -39 36 -61 31 -74 -14 -5 -20 -22 -54 -37 -75 -15 -21 -32 -51 -39 -66 -18 -41 -61 -38 -105 6 -31 31 -34 39 -34 92 0 45 -5 63 -21 80 -30 32 -37 105 -14 141 17 26 17 27 -6 46 -13 11 -55 35 -93 54 l-68 34 -52 -20 c-89 -35 -276 -74 -302 -64 -12 4 -14 15 -10 47 20 137 19 152 -5 170 -36 25 -69 21 -69 -8z m20 -191 c0 -8 -7 -15 -15 -15 -8 0 -15 7 -15 15 0 8 7 15 15 15 8 0 15 -7 15 -15z m408 -117 c16 -16 15 -63 -3 -142 -22 -92 -31 -114 -76 -172 -29 -38 -55 -58 -100 -79 -56 -25 -66 -26 -132 -18 -61 7 -72 11 -75 28 -2 11 -8 30 -14 42 -16 33 -3 89 31 132 17 22 31 43 31 47 0 12 72 84 84 84 5 0 17 7 27 16 23 21 158 73 190 74 14 0 30 -5 37 -12z m-553 -43 c0 -14 -8 -21 -27 -23 -24 -3 -28 0 -28 23 0 23 4 26 28 23 19 -2 27 -9 27 -23z m220 -14 c0 -15 -13 -34 -38 -54 -31 -26 -47 -31 -90 -32 l-52 0 0 40 c0 38 2 40 45 57 25 10 65 16 90 15 40 -2 45 -5 45 -26z m785 -136 c0 -8 -7 -15 -15 -15 -8 0 -15 7 -15 15 0 8 7 15 15 15 8 0 15 -7 15 -15z m-1182 -67 c22 -22 13 -73 -20 -124 -18 -27 -37 -53 -43 -57 -12 -9 -169 1 -202 14 -17 6 -23 16 -23 36 2 85 85 143 206 143 41 0 75 -5 82 -12z m1094 -148 c31 -64 33 -82 13 -113 -8 -13 -21 -43 -28 -68 -20 -64 -63 -129 -87 -129 -48 0 -86 84 -77 169 6 58 31 127 64 169 20 27 31 33 56 30 28 -3 36 -11 59 -58z m-884 33 c-2 -11 -14 -19 -31 -21 -29 -4 -35 6 -15 26 19 19 50 15 46 -5z m548 7 c27 -11 27 -11 21 -88 -6 -83 -43 -204 -76 -251 -12 -16 -21 -33 -21 -38 0 -19 -58 -63 -102 -79 -40 -13 -51 -14 -75 -2 -24 11 -31 26 -50 93 -12 44 -22 96 -22 115 -1 41 63 159 95 175 10 5 37 21 59 35 70 44 125 57 171 40z m478 -80 c50 -18 57 -133 15 -227 -16 -34 -25 -43 -45 -43 -19 0 -28 7 -35 30 -6 16 -23 36 -37 42 -38 18 -38 52 -3 130 22 50 35 68 53 71 13 2 24 5 25 6 1 0 13 -3 27 -9z m231 -43 c16 -12 17 -24 13 -94 -7 -90 -36 -163 -66 -163 -25 0 -66 46 -85 95 -12 34 -13 46 -3 76 22 65 54 99 90 99 18 0 40 -6 51 -13z m-1407 -56 c3 -28 -3 -39 -41 -75 -40 -39 -119 -76 -161 -76 -18 0 -36 30 -36 59 0 33 33 89 60 102 25 13 117 27 155 25 15 -1 21 -9 23 -35z m170 -91 c2 -21 -4 -28 -40 -42 -83 -34 -104 -13 -42 42 43 37 78 37 82 0z m1293 -106 c13 -14 41 -33 62 -41 21 -9 42 -24 47 -34 25 -46 -2 -190 -40 -214 -14 -8 -47 20 -66 56 -10 20 -19 25 -37 22 -56 -11 -77 100 -37 191 24 53 37 56 71 20z m-711 -46 c0 -43 -22 -114 -50 -160 -19 -33 -27 -38 -60 -38 -61 0 -70 21 -35 88 36 69 101 142 126 142 15 0 19 -7 19 -32z m-429 -7 c26 -26 29 -36 29 -91 0 -33 -6 -76 -14 -94 -24 -57 -122 -111 -147 -80 -6 8 -17 14 -24 14 -6 0 -26 18 -43 39 -30 38 -31 41 -22 97 11 68 31 99 80 125 53 29 106 25 141 -10z m739 9 c0 -11 -7 -20 -15 -20 -8 0 -15 9 -15 20 0 11 7 20 15 20 8 0 15 -9 15 -20z m-70 -14 c6 -8 20 -36 30 -63 11 -26 19 -42 20 -35 0 17 27 15 34 -4 9 -24 7 -54 -4 -54 -5 0 -10 -5 -10 -11 0 -16 -62 -89 -75 -89 -14 0 -25 -44 -25 -95 0 -29 2 -31 28 -28 23 4 29 -1 42 -29 9 -20 14 -57 12 -92 -2 -52 -8 -68 -50 -130 -65 -97 -84 -117 -137 -146 -70 -38 -80 -26 -78 90 2 97 19 146 68 200 12 14 31 38 41 55 19 29 19 29 -1 21 -53 -23 -70 -19 -83 16 -6 19 -12 50 -12 69 0 44 36 187 61 244 34 76 107 118 139 81z m-1234 -58 c2 -66 -23 -88 -91 -79 -58 7 -68 26 -40 77 21 39 49 54 95 51 35 -2 35 -3 36 -49z m218 -22 c44 -41 46 -70 6 -122 -16 -21 -30 -46 -30 -55 0 -37 -93 -89 -158 -89 -33 0 -45 6 -67 32 -44 52 -23 112 75 204 79 75 119 82 174 30z m1226 -141 c0 -8 -4 -15 -10 -15 -5 0 -10 7 -10 15 0 8 5 15 10 15 6 0 10 -7 10 -15z m500 -14 c0 -50 -39 -71 -60 -32 -19 37 -12 51 25 51 28 0 35 -4 35 -19z m70 9 c0 -5 -4 -10 -10 -10 -5 0 -10 5 -10 10 0 6 5 10 10 10 6 0 10 -4 10 -10z m-2190 -30 c0 -5 -4 -10 -10 -10 -5 0 -10 5 -10 10 0 6 5 10 10 10 6 0 10 -4 10 -10z m1098 -43 c4 -52 -17 -110 -77 -213 -28 -47 -51 -88 -51 -90 0 -17 -105 -155 -134 -178 -35 -26 -38 -27 -61 -12 -21 14 -25 24 -25 68 0 67 47 165 135 281 36 48 65 91 65 97 0 17 104 90 125 88 15 -2 21 -12 23 -41z m635 -47 c-2 -76 -33 -164 -59 -168 -23 -3 -74 45 -58 56 6 4 16 28 22 54 18 70 50 120 76 116 19 -3 21 -9 19 -58z m-923 25 c0 -8 -9 -15 -20 -15 -11 0 -20 7 -20 15 0 8 9 15 20 15 11 0 20 -7 20 -15z m-272 -78 c-4 -42 -17 -87 -39 -135 -34 -73 -34 -74 -113 -113 -54 -27 -92 -39 -121 -39 l-43 0 -4 58 -5 57 90 95 c49 52 97 98 106 101 9 4 23 14 30 23 9 10 29 16 59 16 l45 0 -5 -63z m-1018 13 c0 -11 -7 -20 -15 -20 -8 0 -15 9 -15 20 0 11 7 20 15 20 8 0 15 -9 15 -20z m433 -70 c-3 -64 -4 -67 -28 -90 -13 -12 -42 -23 -72 -26 -46 -6 -51 -4 -72 22 -29 36 -21 68 25 112 32 30 39 33 92 30 l57 -3 -2 -45z m-1623 15 c0 -18 -5 -25 -20 -25 -20 0 -28 28 -13 43 15 16 33 6 33 -18z m1368 -54 c3 -47 0 -57 -24 -82 -21 -22 -37 -29 -66 -29 -38 0 -38 0 -38 40 0 48 32 116 57 123 10 3 29 4 43 4 23 -2 25 -6 28 -56z m-171 -1 c-7 -55 -34 -90 -68 -90 -23 0 -32 6 -40 27 -19 50 -8 74 41 93 59 23 74 17 67 -30z m601 21 c10 -6 11 -17 5 -42 -8 -31 -13 -34 -51 -37 -39 -3 -42 -2 -42 23 0 41 17 65 48 65 15 0 33 -4 40 -9z m1877 3 c25 -10 55 -79 55 -127 0 -37 -6 -50 -32 -76 -40 -40 -86 -40 -105 -1 -19 38 -17 169 4 192 16 18 48 23 78 12z m-495 -119 c0 -8 -7 -15 -15 -15 -8 0 -15 7 -15 15 0 8 7 15 15 15 8 0 15 -7 15 -15z m-3320 -30 c0 -8 -7 -15 -15 -15 -8 0 -15 7 -15 15 0 8 7 15 15 15 8 0 15 -7 15 -15z m1258 -34 c2 -30 -2 -49 -14 -62 -36 -40 -81 -8 -68 48 14 64 14 64 47 61 30 -3 32 -6 35 -47z m1256 17 c9 -12 16 -32 16 -43 -1 -21 -28 -105 -54 -166 -8 -20 -18 -74 -21 -120 -9 -121 -22 -164 -62 -199 -37 -33 -66 -43 -109 -38 -39 4 -77 68 -71 119 6 48 51 139 93 190 33 39 34 44 34 122 1 118 29 156 117 157 32 0 45 -5 57 -22z m414 -90 c-5 -113 -23 -168 -66 -196 -51 -34 -77 31 -61 157 10 87 53 140 113 141 17 0 18 -7 14 -102z m-1024 52 c23 -8 26 -15 26 -57 0 -54 -32 -128 -62 -144 -34 -18 -172 -7 -197 15 -26 24 -27 48 -2 63 11 7 26 25 33 40 7 15 22 32 33 38 11 6 36 21 55 33 38 24 74 28 114 12z m-954 -44 c0 -30 -27 -96 -40 -96 -6 0 -10 -10 -10 -21 0 -12 -18 -41 -40 -65 -22 -24 -40 -49 -40 -55 0 -25 -53 -119 -76 -134 -13 -8 -24 -22 -24 -29 0 -15 -19 -21 -101 -31 -53 -7 -57 -6 -62 17 -4 12 -7 33 -7 46 0 12 -13 36 -30 54 -41 43 -41 82 3 108 17 11 48 20 68 20 47 0 101 19 96 34 -2 6 -26 13 -53 16 -52 5 -62 18 -50 66 10 38 45 53 160 68 59 8 110 17 113 20 4 3 26 6 50 6 39 0 43 -2 43 -24z m188 -28 c2 -20 -3 -31 -22 -43 -36 -24 -61 -16 -59 19 3 38 21 58 52 54 20 -2 27 -9 29 -30z m256 -35 c10 -39 -4 -80 -40 -114 -19 -17 -37 -23 -77 -24 -69 -1 -150 -39 -216 -102 -42 -41 -54 -58 -58 -92 -6 -46 -8 -45 53 -30 39 10 47 17 61 51 23 57 72 77 93 38 8 -15 7 -27 -5 -49 -19 -38 -19 -52 -1 -45 8 3 22 28 32 56 16 49 27 58 89 74 20 5 27 1 37 -20 10 -22 13 -24 20 -11 9 16 54 20 97 8 20 -5 22 -10 18 -41 -9 -53 -30 -71 -80 -65 -23 3 -47 12 -54 21 -18 23 -72 -2 -78 -37 -3 -14 -12 -48 -20 -74 -11 -38 -11 -61 -3 -107 15 -77 2 -110 -41 -110 -16 0 -33 -4 -36 -10 -9 -15 -45 -12 -51 5 -4 9 7 30 25 50 25 28 31 45 31 80 0 53 -24 75 -83 75 -20 0 -53 6 -72 14 -20 9 -49 12 -70 9 -47 -8 -65 9 -65 61 0 36 12 61 73 157 48 74 83 119 103 129 16 8 45 25 64 37 19 11 54 24 77 28 26 4 55 19 80 41 49 44 83 43 97 -3z m2584 -30 c71 -36 93 -63 51 -63 -18 0 -20 -4 -14 -27 3 -16 17 -42 31 -60 34 -45 31 -57 -11 -50 -32 5 -35 3 -41 -21 -10 -47 -13 -52 -29 -52 -9 0 -49 25 -90 55 l-74 54 5 53 c3 29 9 62 14 73 4 11 12 32 19 48 15 38 49 36 139 -10z m-3440 5 c21 -21 14 -72 -13 -98 -20 -19 -37 -24 -78 -25 l-51 0 -7 40 c-4 24 -3 45 4 53 28 34 121 54 145 30z m500 -20 c-4 -30 -48 -39 -48 -10 0 10 3 22 7 25 3 4 15 7 25 7 14 0 19 -6 16 -22z m550 2 c47 -44 38 -104 -20 -140 -24 -14 -43 -18 -68 -14 -43 8 -58 21 -60 54 -4 46 0 58 29 89 35 38 85 42 119 11z m1665 8 c27 -20 25 -122 -2 -175 -12 -23 -28 -47 -35 -53 -18 -14 -61 3 -76 30 -8 14 -21 20 -45 20 l-35 0 0 65 c0 71 14 90 51 66 17 -10 24 -6 50 24 33 37 63 44 92 23z m-518 -35 c-8 -46 -12 -53 -31 -53 -10 0 -14 12 -14 45 0 42 2 45 26 45 25 0 26 -2 19 -37z m-547 -34 c4 -74 -9 -105 -47 -114 -45 -10 -81 18 -81 62 0 45 66 116 102 111 20 -3 23 -9 26 -59z m1427 11 c0 -51 -29 -48 -33 3 -3 33 -1 38 15 35 13 -2 18 -12 18 -38z m-1035 -18 c0 -41 -14 -62 -42 -62 -14 0 -18 8 -18 38 0 41 14 62 42 62 14 0 18 -8 18 -38z m-2210 13 c11 -13 10 -23 0 -56 -17 -49 -22 -53 -90 -57 -30 -1 -70 -4 -89 -5 -42 -3 -60 20 -45 60 8 23 17 29 52 34 24 3 50 13 60 22 21 22 95 23 112 2z m607 -30 c4 -27 -41 -58 -85 -59 -28 -1 -35 3 -38 21 -5 32 40 65 85 61 27 -2 37 -8 38 -23z m2621 -67 c-2 -15 -11 -24 -25 -26 -28 -4 -31 22 -5 37 26 16 34 13 30 -11z m-1628 -8 c20 -20 25 -55 14 -97 -6 -21 -12 -23 -73 -23 -82 1 -111 20 -111 74 0 28 5 38 28 50 41 23 118 20 142 -4z m704 -72 c23 -45 26 -65 26 -148 0 -85 -3 -99 -25 -132 -28 -41 -54 -53 -93 -43 -48 12 -62 33 -62 95 0 65 14 116 59 213 40 85 59 88 95 15z m208 -53 c48 -119 60 -210 34 -250 -15 -23 -23 -26 -64 -23 l-47 3 -12 50 c-7 28 -16 93 -19 145 -6 81 -4 101 11 130 19 37 34 52 49 47 5 -2 26 -48 48 -102z m-2488 76 c24 -26 18 -75 -10 -79 -11 -2 -32 2 -47 7 -21 8 -27 17 -27 39 0 51 50 71 84 33z m526 -1 c0 -35 -112 -140 -150 -140 -32 0 19 127 60 147 14 7 40 13 58 13 25 0 32 -4 32 -20z m2110 -7 c7 -16 15 -67 18 -115 4 -77 3 -88 -11 -88 -37 0 -77 121 -63 193 8 45 37 50 56 10z m-1296 -34 c37 -29 34 -64 -6 -90 -63 -39 -152 -6 -146 55 2 23 10 32 38 42 52 18 84 17 114 -7z m1890 -20 c16 -48 -13 -109 -54 -109 -10 0 -20 9 -23 23 -2 12 -8 29 -11 38 -5 12 2 20 31 32 21 9 30 16 21 16 -10 1 -18 8 -18 17 0 26 43 13 54 -17z m-1486 -41 c-2 -17 -11 -24 -30 -26 -24 -3 -28 0 -28 22 0 22 4 26 31 26 26 0 30 -3 27 -22z m-1300 -68 c18 -11 35 -27 38 -35 9 -22 -16 -87 -35 -92 -13 -3 -16 -13 -13 -43 4 -44 -16 -62 -43 -40 -21 18 -20 80 1 80 13 0 14 3 5 14 -7 8 -21 12 -31 9 -22 -6 -29 22 -7 30 10 4 10 7 0 18 -16 17 -17 51 -1 67 18 18 49 15 86 -8z m652 -4 c0 -16 -11 -32 -30 -46 -16 -12 -33 -33 -36 -48 -3 -15 -13 -44 -21 -65 -10 -23 -13 -41 -7 -46 17 -17 202 -91 247 -100 51 -9 57 -2 57 67 0 18 7 48 14 67 13 30 20 35 50 35 38 0 76 -36 76 -71 0 -20 15 -25 25 -9 10 17 44 11 55 -9 17 -33 12 -95 -10 -119 -26 -28 -45 -28 -64 0 -13 18 -16 19 -21 5 -11 -26 -1 -52 20 -55 11 -2 27 -10 35 -17 20 -17 60 -2 60 22 0 31 35 77 73 98 42 22 45 36 17 100 -27 62 -26 112 2 142 28 30 58 29 153 -5 71 -26 80 -32 91 -63 14 -40 17 -118 5 -137 -10 -16 -71 -31 -125 -32 -35 0 -38 -2 -30 -22 4 -13 8 -49 8 -80 l1 -58 48 -6 47 -7 0 -41 c0 -23 -6 -48 -12 -55 -7 -7 -13 -31 -13 -54 0 -41 -1 -42 -37 -45 -47 -4 -86 21 -105 66 -9 22 -19 32 -28 28 -36 -13 -126 -80 -199 -145 -79 -72 -106 -84 -198 -97 -70 -10 -75 -16 -43 -58 20 -26 35 -36 55 -36 15 0 35 -9 45 -20 24 -27 30 -25 45 11 14 34 68 79 94 79 9 0 32 17 51 37 31 34 39 37 87 38 51 0 53 -1 56 -28 2 -19 -2 -29 -15 -34 -37 -13 -71 -44 -77 -69 -4 -15 -14 -33 -21 -41 -21 -20 -19 -54 7 -128 13 -35 19 -67 15 -71 -4 -4 -31 2 -60 14 -29 12 -57 22 -63 22 -19 0 -203 126 -238 164 -34 35 -56 88 -56 133 0 38 -40 132 -65 151 -14 11 -98 37 -192 60 -176 43 -242 69 -306 121 -21 16 -48 33 -59 37 -16 5 -18 11 -12 32 4 15 7 43 5 62 -6 80 -2 177 8 203 9 22 17 27 44 27 45 0 57 -15 57 -72 0 -42 3 -50 24 -58 16 -6 27 -20 31 -42 10 -44 19 -54 98 -105 87 -56 86 -56 325 6 29 8 50 1 175 -59 161 -76 193 -89 182 -70 -14 22 -251 129 -398 180 l-142 49 3 62 c1 34 7 68 12 74 6 7 18 37 28 66 16 50 20 53 67 70 72 24 85 23 85 -5z m478 -3 c4 -28 -45 -56 -91 -51 -25 2 -33 8 -35 27 -5 35 23 53 78 49 38 -3 46 -7 48 -25z m-1278 -3 c0 -13 -7 -20 -20 -20 -13 0 -20 7 -20 20 0 13 7 20 20 20 13 0 20 -7 20 -20z m18 -68 c3 -17 -2 -22 -17 -22 -16 0 -21 6 -21 26 0 33 33 30 38 -4z m983 7 c27 -51 -20 -157 -63 -143 -10 3 -43 -2 -73 -11 -77 -25 -87 -19 -83 56 3 69 1 67 93 97 81 27 112 27 126 1z m-1205 -28 c17 -34 3 -65 -32 -69 -31 -4 -54 18 -54 53 0 49 64 61 86 16z m658 -3 c36 -51 11 -88 -58 -88 -32 0 -36 3 -36 26 0 31 38 83 62 83 9 1 24 -9 32 -21z m2356 12 c0 -5 -4 -10 -10 -10 -5 0 -10 5 -10 10 0 6 5 10 10 10 6 0 10 -4 10 -10z m-3122 -33 c17 -13 15 -31 -7 -58 -18 -22 -19 -22 -54 -6 -19 9 -51 17 -71 17 -41 0 -54 17 -36 50 10 20 16 21 83 14 40 -3 78 -11 85 -17z m2039 -3 c7 -18 -7 -46 -25 -52 -8 -2 -12 9 -12 32 0 38 25 51 37 20z m-1684 -22 c9 -10 22 -32 27 -49 8 -21 23 -36 51 -49 34 -15 69 -55 69 -80 0 -3 -23 -4 -52 -2 -37 4 -56 11 -67 26 -86 114 -89 120 -75 156 8 21 27 20 47 -2z m2371 -38 c3 -9 9 -40 12 -70 6 -44 4 -54 -8 -54 -32 0 -57 64 -44 115 7 28 31 34 40 9z m286 -24 c0 -5 -7 -10 -15 -10 -8 0 -15 5 -15 10 0 6 7 10 15 10 8 0 15 -4 15 -10z m50 -10 c0 -5 21 -10 46 -10 l45 0 -3 -42 c-2 -36 -7 -44 -26 -46 -13 -2 -25 3 -28 12 -3 9 -14 16 -25 16 -20 0 -49 36 -49 62 0 11 8 18 20 18 11 0 20 -4 20 -10z m-894 -46 c45 -22 64 -50 64 -97 0 -52 -35 -87 -87 -87 -60 1 -85 27 -91 94 -8 96 33 128 114 90z m478 -9 c53 -49 58 -121 11 -165 -20 -18 -30 -21 -60 -16 -31 6 -40 14 -57 52 -23 54 -18 87 20 127 32 33 51 34 86 2z m-216 -78 c4 -34 -13 -57 -42 -57 -28 0 -46 18 -46 45 0 30 20 46 55 43 25 -2 31 -8 33 -31z m-530 -15 c3 -17 -2 -22 -17 -22 -16 0 -21 6 -21 26 0 33 33 30 38 -4z m-1488 -62 c0 -5 -4 -10 -10 -10 -5 0 -10 5 -10 10 0 6 5 10 10 10 6 0 10 -4 10 -10z m1651 -72 c17 -31 17 -102 0 -121 -15 -19 -75 -23 -115 -7 -34 13 -45 69 -22 116 15 33 18 34 70 34 47 0 57 -3 67 -22z m310 -39 c32 -35 39 -88 14 -109 -8 -7 -35 -15 -59 -17 -59 -7 -86 19 -86 81 0 68 6 76 57 76 37 0 50 -5 74 -31z m227 -29 c31 -61 27 -129 -7 -146 -20 -10 -30 -9 -62 8 -56 29 -61 69 -17 137 19 29 39 50 48 49 8 -2 25 -23 38 -48z m-138 10 c0 -5 -4 -10 -10 -10 -5 0 -10 5 -10 10 0 6 5 10 10 10 6 0 10 -4 10 -10z m670 -59 c0 -32 -22 -81 -40 -91 -10 -6 -33 -10 -50 -10 -17 0 -41 -5 -52 -11 -30 -16 -46 3 -26 32 14 22 132 97 156 98 6 1 12 -7 12 -18z m-1185 -85 c38 -32 39 -34 30 -72 -9 -34 -14 -39 -41 -42 -24 -2 -43 6 -82 38 -76 59 -70 110 13 110 33 0 50 -7 80 -34z m215 9 c28 -25 27 -91 -2 -122 -34 -37 -75 -31 -125 19 -34 33 -43 49 -43 75 0 25 6 36 23 43 35 15 124 6 147 -15z m-386 -21 c27 -10 20 -44 -9 -44 -20 0 -25 5 -25 25 0 26 7 29 34 19z m758 -51 c9 -10 26 -37 38 -60 18 -35 20 -50 13 -80 -12 -53 -34 -52 -93 3 -58 55 -68 80 -46 123 19 36 62 43 88 14z m-1594 -65 c7 -7 12 -29 12 -50 0 -34 -3 -38 -25 -38 -25 0 -45 25 -45 57 0 21 18 43 35 43 6 0 16 -5 23 -12z m952 -18 c26 -14 34 -61 17 -103 -12 -28 -22 -36 -51 -41 -20 -4 -52 -21 -72 -38 -35 -31 -36 -31 -69 -15 l-34 16 -30 -37 -31 -36 -40 39 c-33 32 -40 46 -38 70 3 27 7 30 59 41 31 6 69 20 84 32 15 12 35 22 45 22 9 0 34 14 55 30 39 31 73 37 105 20z m468 -23 c18 -38 1 -87 -44 -127 -65 -56 -135 -28 -133 54 0 23 4 49 8 60 10 26 59 45 111 43 38 -2 47 -6 58 -30z m-1330 -22 c20 -43 15 -65 -13 -65 -27 0 -45 25 -45 64 0 36 42 36 58 1z m962 5 c0 -11 -7 -20 -15 -20 -8 0 -15 9 -15 20 0 11 7 20 15 20 8 0 15 -9 15 -20z m-876 -25 c26 -39 21 -55 -18 -55 -34 0 -45 15 -46 63 0 27 45 22 64 -8z m956 -76 c13 -23 6 -63 -21 -126 -16 -37 -23 -43 -47 -43 -43 0 -55 21 -50 84 6 74 28 106 73 106 24 0 37 -6 45 -21z m400 -25 c10 -11 23 -14 51 -9 34 6 39 4 53 -22 15 -29 21 -61 18 -95 -3 -31 -57 -23 -82 12 -21 29 -22 30 -48 14 -21 -12 -33 -13 -55 -5 -24 9 -27 15 -27 59 0 27 3 52 7 55 12 13 71 7 83 -9z m-610 -63 c18 -35 12 -51 -20 -51 -35 0 -47 19 -30 49 14 26 36 27 50 2z m408 -29 l3 -43 -33 3 c-25 2 -35 9 -42 29 -14 41 -2 61 36 57 31 -3 33 -6 36 -46z m1502 33 c0 -8 -7 -15 -15 -15 -8 0 -15 7 -15 15 0 8 7 15 15 15 8 0 15 -7 15 -15z m-2427 -43 c33 -34 36 -72 7 -72 -29 0 -70 44 -70 75 0 34 29 33 63 -3z m428 -12 c22 -12 49 -30 59 -40 24 -24 26 -75 4 -84 -28 -11 -101 -6 -137 9 -42 17 -56 59 -37 106 15 36 52 39 111 9z m1719 -135 c0 -8 -4 -15 -10 -15 -5 0 -10 7 -10 15 0 8 5 15 10 15 6 0 10 -7 10 -15z m70 -35 c0 -5 -7 -10 -15 -10 -8 0 -15 5 -15 10 0 6 7 10 15 10 8 0 15 -4 15 -10z m-52 -82 c-4 -29 -38 -38 -38 -10 0 22 8 32 27 32 9 0 13 -8 11 -22z m-228 -93 c0 -8 -4 -15 -10 -15 -5 0 -10 7 -10 15 0 8 5 15 10 15 6 0 10 -7 10 -15z"/>
 <path d="M5988 5246 c-3 -14 -2 -26 3 -26 14 0 20 20 11 36 -8 14 -10 12 -14 -10z"/>
 <path d="M4290 3730 c0 -5 20 -32 45 -60 25 -28 45 -57 45 -65 0 -9 6 -12 17 -8 12 5 15 2 10 -10 -7 -18 39 -33 73 -22 22 7 44 40 35 54 -3 5 -37 26 -77 46 -40 21 -87 46 -105 56 -38 22 -43 23 -43 9z"/>
 <path d="M3270 6265 c-14 -8 -50 -24 -80 -35 -50 -18 -83 -40 -188 -125 -56 -47 -124 -188 -152 -318 -17 -77 -19 -101 -9 -113 19 -23 29 -17 50 32 11 25 30 49 41 53 18 6 18 8 4 20 -26 22 -18 39 22 50 49 14 58 14 92 -4 40 -21 42 -66 5 -83 -31 -14 -58 -15 -70 -3 -6 7 -10 2 -10 -12 0 -22 2 -22 45 -11 64 17 127 41 209 82 39 19 41 21 16 18 -16 -3 -42 -8 -57 -12 -26 -6 -28 -4 -28 25 0 30 2 31 40 31 31 0 47 6 64 25 15 16 34 25 53 25 31 0 81 33 138 90 17 16 75 55 129 85 89 49 101 53 116 40 21 -19 44 -19 59 -1 16 19 6 38 -37 65 -20 13 -49 32 -63 41 -57 39 -340 65 -389 35z m98 -142 c-4 -39 -28 -42 -28 -4 0 21 5 31 16 31 11 0 14 -8 12 -27z"/>
 <path d="M4134 6197 c-26 -15 -74 -71 -74 -86 0 -25 55 -7 98 32 24 22 30 67 10 67 -7 -1 -23 -6 -34 -13z"/>
 <path d="M4025 6040 c4 -6 11 -8 16 -5 14 9 11 15 -7 15 -8 0 -12 -5 -9 -10z"/>
 <path d="M3338 5833 c6 -2 18 -2 25 0 6 3 1 5 -13 5 -14 0 -19 -2 -12 -5z"/>
 <path d="M7182 3722 c-7 -24 -31 -62 -55 -87 -23 -24 -55 -58 -72 -76 l-30 -32 33 22 c18 13 42 36 54 52 12 15 34 31 49 34 24 5 29 13 34 50 10 65 2 88 -13 37z"/>
 <path d="M5340 2865 c0 -17 35 -38 56 -33 13 2 11 7 -6 26 -24 25 -50 29 -50 7z"/>
 <path d="M5766 2822 c-8 -13 0 -18 40 -26 17 -4 55 -23 85 -41 56 -37 102 -48 79 -20 -7 8 -39 31 -71 51 -62 37 -122 53 -133 36z"/>
 <path d="M5510 2810 c0 -5 12 -10 26 -10 14 0 23 4 19 10 -3 6 -15 10 -26 10 -10 0 -19 -4 -19 -10z"/>
 <path d="M2357 2185 c-9 -53 -54 -135 -100 -182 -45 -47 -56 -50 -92 -27 -23 15 -27 15 -62 -3 -36 -17 -38 -21 -41 -71 -3 -45 -7 -54 -30 -66 -51 -25 -133 -39 -213 -34 -43 3 -79 3 -79 2 0 -5 81 -25 134 -34 229 -36 478 156 494 383 5 71 -2 91 -11 32z"/>
 <path d="M2135 1744 c-16 -7 -53 -21 -82 -29 -35 -11 -59 -26 -76 -48 -49 -65 -104 -193 -128 -297 -13 -58 -13 -303 1 -344 10 -32 118 -136 167 -161 50 -26 222 -15 338 21 98 31 282 137 322 186 7 7 23 62 36 120 l24 107 -28 52 c-86 156 -230 288 -402 369 -90 42 -123 47 -172 24z"/>
 <path d="M3646 1069 c-16 -83 -114 -229 -153 -229 -8 0 -25 7 -38 16 -23 15 -27 15 -62 -3 -36 -17 -38 -21 -43 -73 l-5 -54 -50 -20 c-38 -15 -75 -20 -157 -20 -60 -1 -108 -2 -108 -3 0 -1 26 -9 58 -19 162 -48 350 7 463 135 61 69 94 144 114 264 7 45 -10 50 -19 6z"/>
 <path d="M2046 548 c-28 -97 -80 -191 -134 -242 -29 -27 -32 -27 -53 -12 -34 24 -76 20 -105 -9 -21 -21 -25 -34 -22 -68 3 -40 1 -43 -37 -61 -33 -17 -61 -20 -162 -21 -126 0 -133 -6 -39 -31 258 -69 517 114 554 390 8 60 7 85 -2 54z"/>
 </g>

</svg>